# xmcd
#
# Track frame offsets: 
#        150
#        15132
#        26448
#        40224
#        48409
#        62852
#        76128
#        87104
#        95821
#        109312
#        122106
#        138587
#
# Disc length: 1941 seconds
#
# Revision: 2
# Processed by: cddbd v1.5.2PL0 Copyright (c) Steve Scherf et al.
# Submitted via: ExactAudioCopy v0.90b4
#
DISCID=9607930c
DTITLE=Various Artist - Cool Yule [CD3]
DYEAR=2009
DGENRE=Vocal
TTITLE0=Ella Fitzgerald - It Came Upon A Midnight Clear
TTITLE1=Dean Martin - White Christmas
TTITLE2=Glen Campbell - The Christmas Song (Merry Christmas To You)
TTITLE3=Ella Fitzgerald - The First Noël
TTITLE4=Wayne Newton - Silver Bells
TTITLE5=June Christy - Christmas Heart
TTITLE6=Al Martino - You're All I Want For Christmas
TTITLE7=Julie London - Warm December
TTITLE8=Gordon MacRae - The Merry Christmas Waltz
TTITLE9=Ella Fitzgerald - Silent Night
TTITLE10=Lena Horne - What Are You Doing New Year's Eve?
TTITLE11=Lou Rawls - Auld Lang Syne 
EXTD=
EXTT0=
EXTT1=
EXTT2=
EXTT3=
EXTT4=
EXTT5=
EXTT6=
EXTT7=
EXTT8=
EXTT9=
EXTT10=
EXTT11=
PLAYORDER=
